<?xml version="1.0" standalone="no"?>
<!DOCTYPE svg PUBLIC "-//W3C//DTD SVG 20010904//EN"
 "http://www.w3.org/TR/2001/REC-SVG-20010904/DTD/svg10.dtd">
<svg version="1.0" xmlns="http://www.w3.org/2000/svg"
 width="297.000000pt" height="170.000000pt" viewBox="0 0 297.000000 170.000000"
 preserveAspectRatio="xMidYMid meet">

<g transform="translate(0.000000,170.000000) scale(0.100000,-0.100000)"
fill="#000000" stroke="none">
<path d="M2708 1507 c-7 -7 -31 -26 -53 -41 -44 -31 -42 -31 28 -1 30 13 47
26 47 38 0 20 -4 21 -22 4z"/>
<path d="M240 1493 c0 -9 3 -14 6 -10 6 6 77 -31 125 -64 25 -17 26 -24 28
-106 3 -115 11 -121 11 -9 l0 88 25 -6 c38 -10 32 17 -7 33 -18 8 -35 15 -38
15 -27 10 -85 38 -90 44 -3 4 -17 13 -32 19 -24 11 -28 10 -28 -4z"/>
<path d="M1408 1433 c7 -3 16 -2 19 1 4 3 -2 6 -13 5 -11 0 -14 -3 -6 -6z"/>
<path d="M1578 1433 c7 -3 16 -2 19 1 4 3 -2 6 -13 5 -11 0 -14 -3 -6 -6z"/>
<path d="M2538 1417 c-16 -6 -28 -17 -28 -24 0 -9 6 -10 25 -3 l25 10 2 -93 2
-92 5 95 c3 52 10 101 14 108 10 15 -7 14 -45 -1z"/>
<path d="M1331 1404 c0 -11 3 -14 6 -6 3 7 2 16 -1 19 -3 4 -6 -2 -5 -13z"/>
<path d="M1390 1405 c0 -10 9 -15 28 -14 27 2 27 2 2 7 -23 4 -24 5 -5 13 19
7 19 8 -2 8 -14 1 -23 -5 -23 -14z"/>
<path d="M1550 1411 c0 -5 -8 -12 -17 -15 -10 -2 -5 -4 11 -3 30 2 50 27 22
27 -9 0 -16 -4 -16 -9z"/>
<path d="M1631 1404 c0 -11 3 -14 6 -6 3 7 2 16 -1 19 -3 4 -6 -2 -5 -13z"/>
<path d="M273 1350 c0 -30 2 -43 4 -27 2 15 2 39 0 55 -2 15 -4 2 -4 -28z"/>
<path d="M2692 1380 c0 -14 2 -19 5 -12 2 6 2 18 0 25 -3 6 -5 1 -5 -13z"/>
<path d="M2694 1245 c0 -60 1 -84 3 -52 2 32 2 81 0 110 -2 29 -3 3 -3 -58z"/>
<path d="M630 1296 c0 -9 5 -16 10 -16 6 0 10 4 10 9 0 6 -4 13 -10 16 -5 3
-10 -1 -10 -9z"/>
<path d="M2320 1295 c-7 -8 -20 -15 -29 -15 -9 0 -25 -7 -35 -15 -17 -13 -18
-15 -3 -15 19 0 87 41 87 53 0 11 -6 9 -20 -8z"/>
<path d="M680 1265 c14 -8 32 -14 40 -14 21 0 -18 22 -45 26 -17 2 -16 0 5
-12z"/>
<path d="M273 1205 c0 -38 2 -53 4 -32 2 20 2 52 0 70 -2 17 -4 1 -4 -38z"/>
<path d="M1390 895 c0 -39 3 -45 21 -45 19 0 21 5 17 40 -2 22 1 42 7 44 5 2
-2 5 -17 5 -27 1 -28 -1 -28 -44z"/>
<path d="M1458 915 c2 -14 8 -25 12 -25 5 0 11 -10 13 -22 4 -19 4 -18 6 5 0
16 5 26 11 22 6 -3 10 3 10 14 0 14 6 21 18 21 15 0 18 -7 16 -40 -2 -33 1
-40 17 -40 16 0 19 7 19 45 l0 45 -64 0 c-62 0 -63 0 -58 -25z m32 5 c0 -5 -5
-10 -11 -10 -5 0 -7 5 -4 10 3 6 8 10 11 10 2 0 4 -4 4 -10z"/>
<path d="M2648 853 c7 -3 16 -2 19 1 4 3 -2 6 -13 5 -11 0 -14 -3 -6 -6z"/>
<path d="M735 820 c9 -31 11 -33 25 -28 7 2 3 13 -11 28 l-21 25 7 -25z"/>
<path d="M2510 830 c0 -5 5 -10 11 -10 5 0 7 5 4 10 -3 6 -8 10 -11 10 -2 0
-4 -4 -4 -10z"/>
<path d="M365 820 c-30 -8 -30 -8 8 -9 20 0 37 4 37 9 0 11 -2 11 -45 0z"/>
<path d="M1387 823 c-2 -2 -2 -15 1 -28 4 -22 10 -25 44 -25 23 0 37 4 33 10
-3 6 -13 10 -21 10 -8 0 -14 6 -14 13 0 9 11 12 38 8 20 -3 29 -7 19 -9 -35
-7 3 -32 49 -32 42 0 44 1 44 29 l0 30 -95 -1 c-52 0 -96 -3 -98 -5z m29 -30
c-10 -10 -19 5 -10 18 6 11 8 11 12 0 2 -7 1 -15 -2 -18z m144 3 c0 -9 -30
-14 -35 -6 -4 6 3 10 14 10 12 0 21 -2 21 -4z"/>
<path d="M2548 819 c-8 -6 1 -9 25 -9 20 0 37 2 37 4 0 9 -50 12 -62 5z"/>
<path d="M2210 805 c0 -8 5 -15 10 -15 6 0 10 7 10 15 0 8 -4 15 -10 15 -5 0
-10 -7 -10 -15z"/>
<path d="M470 790 c0 -11 5 -20 10 -20 6 0 10 9 10 20 0 11 -4 20 -10 20 -5 0
-10 -9 -10 -20z"/>
<path d="M680 794 c0 -9 5 -14 12 -12 18 6 21 28 4 28 -9 0 -16 -7 -16 -16z"/>
<path d="M1265 798 c-8 -23 2 -72 15 -76 9 -3 11 1 6 13 -5 15 -2 17 24 13 26
-4 30 -1 30 19 0 18 -5 23 -25 23 -14 0 -25 5 -25 10 0 14 -20 12 -25 -2z"/>
<path d="M1754 788 c3 -24 0 -28 -23 -28 -25 0 -59 -35 -47 -48 3 -3 6 0 6 6
0 7 4 12 9 12 5 0 5 -15 1 -35 -5 -20 -4 -33 1 -29 5 3 9 14 9 25 0 15 6 20
23 17 16 -2 21 -9 20 -26 -2 -12 2 -22 7 -22 6 0 10 11 10 25 0 14 5 25 10 25
6 0 10 -13 10 -30 0 -16 4 -30 9 -30 5 0 7 18 4 40 -4 26 -2 40 6 40 21 0 12
48 -10 55 -11 4 -23 4 -26 1 -4 -3 -1 -6 5 -6 7 0 12 -5 12 -11 0 -19 -24 -3
-32 22 -7 23 -7 22 -4 -3z m9 -55 c-7 -2 -19 -2 -25 0 -7 3 -2 5 12 5 14 0 19
-2 13 -5z"/>
<path d="M2260 800 c0 -14 15 -19 29 -11 9 6 7 10 -8 14 -12 3 -21 1 -21 -3z"/>
<path d="M2480 790 c0 -11 5 -20 10 -20 6 0 10 9 10 20 0 11 -4 20 -10 20 -5
0 -10 -9 -10 -20z"/>
<path d="M2536 791 c-6 -9 18 -41 31 -41 3 0 16 9 30 20 l26 20 -26 0 c-14 0
-32 3 -40 6 -8 3 -18 1 -21 -5z"/>
<path d="M375 780 c3 -6 -3 -10 -14 -10 -12 0 -21 -4 -21 -9 0 -8 28 -9 83 -2
20 2 -2 25 -27 28 -18 3 -25 0 -21 -7z"/>
<path d="M2935 765 c-24 -11 -26 -14 -10 -15 l20 -1 -20 -9 c-17 -7 -15 -9 13
-9 28 -1 32 2 32 24 0 14 -1 25 -2 25 -2 -1 -16 -7 -33 -15z"/>
<path d="M0 750 c0 -14 7 -20 21 -20 11 0 17 5 14 10 -3 6 2 10 12 10 15 0 16
2 3 10 -26 17 -50 12 -50 -10z"/>
<path d="M135 750 l-30 -8 27 -1 c15 0 30 4 33 9 3 6 5 9 3 9 -2 -1 -16 -5
-33 -9z"/>
<path d="M935 748 c-62 -12 -77 -24 -71 -57 3 -14 7 -50 8 -78 1 -45 4 -51 17
-40 12 10 14 9 7 -8 -9 -24 -9 -23 -7 -56 1 -23 5 -26 31 -25 31 1 54 22 43
39 -2 4 -16 1 -29 -8 -23 -15 -24 -15 -24 9 0 25 25 43 34 23 2 -7 5 -2 5 11
1 16 7 22 25 22 21 0 25 -5 29 -37 l4 -38 1 38 c2 35 4 38 29 35 23 -3 29 -10
39 -53 l13 -50 -6 55 c-3 30 -9 60 -15 67 -6 8 -3 13 11 18 12 3 21 11 21 16
0 16 29 10 39 -8 10 -17 10 -17 11 0 0 9 -5 17 -11 17 -5 0 -7 5 -3 12 4 6 3
8 -4 4 -6 -3 -13 -2 -17 4 -4 6 -11 8 -16 5 -5 -4 -9 -1 -9 5 0 6 10 8 25 4
17 -4 25 -2 25 6 0 9 -11 11 -39 6 -27 -4 -41 -2 -44 7 -4 9 -6 9 -6 0 -1 -7
-6 -13 -13 -13 -6 0 -9 3 -5 6 3 3 2 11 -4 18 -46 56 -41 54 -94 44z m45 -61
c0 -5 -4 -5 -10 -2 -5 3 -10 14 -10 23 0 15 2 15 10 2 5 -8 10 -19 10 -23z
m24 -39 c5 -3 -8 -13 -29 -22 -48 -20 -55 -20 -54 2 0 9 3 12 5 6 8 -19 63 6
56 25 -3 10 -2 12 4 6 5 -5 13 -13 18 -17z m76 10 c0 -4 -15 -8 -32 -7 -26 0
-29 2 -13 8 25 10 45 10 45 -1z m10 -22 c0 -3 -4 -8 -10 -11 -5 -3 -10 -1 -10
4 0 6 5 11 10 11 6 0 10 -2 10 -4z"/>
<path d="M2818 743 c12 -2 32 -2 45 0 12 2 2 4 -23 4 -25 0 -35 -2 -22 -4z"/>
<path d="M1852 666 c1 -14 5 -23 9 -20 7 4 0 44 -7 44 -2 0 -3 -11 -2 -24z"/>
<path d="M1907 639 c4 -13 8 -18 11 -10 2 7 -1 18 -6 23 -8 8 -9 4 -5 -13z"/>
<path d="M1152 570 c0 -19 2 -27 5 -17 2 9 2 25 0 35 -3 9 -5 1 -5 -18z"/>
<path d="M818 542 c-6 -14 -78 -52 -78 -41 0 6 -5 7 -10 4 -6 -3 -8 -17 -6
-31 3 -13 0 -25 -5 -25 -5 -1 -17 -2 -26 -3 -21 -1 -43 -18 -37 -28 8 -13 50
7 81 39 18 18 37 33 43 33 6 0 8 5 5 11 -4 6 -1 9 6 8 28 -5 68 13 62 27 -6
15 -29 19 -35 6z"/>
<path d="M2193 502 c-8 -5 -2 -12 18 -19 31 -12 31 -12 14 7 -10 11 -19 20
-19 20 -1 0 -6 -4 -13 -8z"/>
<path d="M807 480 c-13 -13 -15 -20 -7 -25 15 -9 33 8 28 27 -2 13 -6 12 -21
-2z"/>
<path d="M2266 435 c4 -8 13 -15 21 -15 13 0 13 3 3 15 -7 8 -16 15 -21 15 -5
0 -6 -7 -3 -15z"/>
<path d="M472 360 c0 -19 2 -27 5 -17 2 9 2 25 0 35 -3 9 -5 1 -5 -18z"/>
<path d="M2487 383 c-3 -5 -1 -17 4 -28 7 -17 8 -17 8 8 1 27 -4 34 -12 20z"/>
<path d="M396 325 c-5 -22 -15 -46 -24 -52 -14 -11 -11 -13 16 -13 21 0 32 5
32 14 0 8 6 17 13 20 9 3 8 8 -4 18 -9 7 -19 22 -21 33 -3 14 -7 7 -12 -20z
m19 -14 c3 -5 1 -12 -5 -16 -5 -3 -10 1 -10 9 0 18 6 21 15 7z"/>
<path d="M451 314 c0 -11 3 -14 6 -6 3 7 2 16 -1 19 -3 4 -6 -2 -5 -13z"/>
<path d="M2531 315 c-1 -29 23 -55 50 -55 15 0 20 3 12 8 -7 4 -11 18 -8 30 2
12 0 24 -6 27 -5 4 -9 -5 -9 -19 0 -34 -16 -33 -28 2 -8 21 -11 22 -11 7z"/>
<path d="M2915 150 c-3 -5 -1 -10 4 -10 6 0 11 5 11 10 0 6 -2 10 -4 10 -3 0
-8 -4 -11 -10z"/>
<path d="M4 113 l-2 -21 37 20 c20 11 37 21 38 22 1 1 -14 2 -35 1 -31 0 -37
-4 -38 -22z"/>
<path d="M2920 120 c44 -31 50 -31 50 -8 0 17 -3 19 -9 9 -6 -9 -11 -10 -15
-2 -4 6 -15 11 -24 11 -15 0 -15 -2 -2 -10z"/>
</g>
</svg>
